<?xml version="1.0" encoding="UTF-8" standalone="no"?>
<!-- Created with Inkscape (http://www.inkscape.org/) -->

<svg
   width="480.3963"
   height="843.72284"
   viewBox="0 0 127.10486 223.23501"
   version="1.1"
   id="svg1"
   inkscape:version="1.3 (0e150ed6c4, 2023-07-21)"
   sodipodi:docname="rysunek.svg"
   xmlns:inkscape="http://www.inkscape.org/namespaces/inkscape"
   xmlns:sodipodi="http://sodipodi.sourceforge.net/DTD/sodipodi-0.dtd"
   xmlns="http://www.w3.org/2000/svg"
   xmlns:svg="http://www.w3.org/2000/svg">
  <sodipodi:namedview
     id="namedview1"
     pagecolor="#505050"
     bordercolor="#ffffff"
     borderopacity="1"
     inkscape:showpageshadow="0"
     inkscape:pageopacity="0"
     inkscape:pagecheckerboard="1"
     inkscape:deskcolor="#505050"
     inkscape:document-units="mm"
     inkscape:zoom="1.0449705"
     inkscape:cx="143.06624"
     inkscape:cy="348.81367"
     inkscape:window-width="2560"
     inkscape:window-height="1369"
     inkscape:window-x="-8"
     inkscape:window-y="-8"
     inkscape:window-maximized="1"
     inkscape:current-layer="layer1"
     showgrid="false" />
  <defs
     id="defs1" />
  <g
     inkscape:label="Warstwa 1"
     inkscape:groupmode="layer"
     id="layer1"
     transform="translate(-41.777493,-6.414615)">
    <ellipse
       style="fill:#d38d5f;stroke-width:0.264583"
       id="path1"
       cx="102.29156"
       cy="44.56266"
       rx="34.687977"
       ry="33.67519" />
    <rect
       style="fill:#000000;stroke-width:0.264583"
       id="rect1"
       width="49.120205"
       height="92.670074"
       x="78.491051"
       y="72.161125"
       ry="12.913043" />
    <rect
       style="fill:#000000;stroke-width:0.264583"
       id="rect4"
       width="18.736572"
       height="64.818413"
       x="106.0243"
       y="11.0993"
       ry="9.3682861"
       transform="rotate(34.96593)" />
    <rect
       style="fill:#000000;stroke-width:0.264583"
       id="rect5"
       width="18.736572"
       height="64.818413"
       x="34.376934"
       y="133.30756"
       ry="9.3682861"
       transform="rotate(-39.409274)" />
    <ellipse
       style="fill:#d38d5f;stroke-width:0.264583"
       id="path5"
       cx="51.652172"
       cy="125.96548"
       rx="9.8746796"
       ry="10.760869" />
    <ellipse
       style="fill:#d38d5f;stroke-width:0.264583"
       id="ellipse5"
       cx="159.00768"
       cy="124.1931"
       rx="9.8746796"
       ry="10.760869" />
    <rect
       style="fill:#000000;stroke-width:0.264583"
       id="rect6"
       width="16.204603"
       height="71.148338"
       x="84.314575"
       y="157.99487"
       ry="8.1023016" />
    <rect
       style="fill:#000000;stroke-width:0.264583"
       id="rect7"
       width="16.204603"
       height="71.148338"
       x="107.6087"
       y="158.50127"
       ry="8.1023016" />
    <path
       style="fill:#2b1100;stroke-width:0.264583"
       d="m 132.42199,23.673913 c 0.0422,0.168798 0.15521,0.334768 0.1266,0.506394 -0.0343,0.206141 -0.96303,1.080602 -1.13938,1.139386 -0.0586,0.01953 -1.69204,-0.470687 -1.77238,-0.506394 -0.045,-0.02001 -0.75132,-0.588034 -0.88619,-0.632992 -0.04,-0.01335 0.0298,0.09676 0,0.126598 -0.0245,0.02444 -0.49874,0.378519 -0.5064,0.379795 -0.81458,0.135765 -0.6794,-0.245085 -1.64578,0.126599 -0.23126,0.08895 -0.9289,0.996011 -1.01278,1.012788 -0.62208,0.124415 -1.26505,-0.102217 -1.89898,-0.126599 -0.88554,-0.03406 -1.77238,0 -2.65857,0 -0.0844,0 -0.18297,0.04682 -0.2532,0 -0.0311,-0.02073 -1.11744,-2.144405 -1.26598,-2.025575 -0.93856,0.750844 -1.71235,1.941532 -2.40537,2.911764 -0.211,0.295397 -0.27703,0.814996 -0.63299,0.88619 -0.48036,0.09607 -2.62197,-1.762354 -2.78517,-1.64578 -1.12722,0.805156 -0.90761,1.414002 -1.77238,2.278772 -0.1081,0.108103 -1.97918,-1.592625 -2.27877,-1.772379 -0.17941,-0.107647 -1.89128,0.965455 -2.15217,1.139387 -0.0993,0.06621 -0.14644,0.199819 -0.2532,0.253196 -0.60861,0.304305 -1.19707,-0.649433 -1.77238,-1.012788 -0.2954,-0.168796 -0.59079,-0.337595 -0.88619,-0.506393 0,-0.0422 0.0298,-0.09676 0,-0.126598 -0.35979,-0.359792 -2.20778,1.238183 -2.40537,1.139385 -0.65051,-0.325255 -1.33392,-1.035432 -2.02558,-1.265984 -0.0566,-0.01887 -0.07,0.107726 -0.12659,0.126599 -0.456462,0.152152 -0.923404,0.273162 -1.392587,0.379795 -0.839301,0.190749 -1.682975,0.364895 -2.53197,0.506394 -0.608086,0.101349 -0.742968,-0.0034 -1.012788,-0.632993 -0.03325,-0.07757 0.03775,-0.177708 0,-0.253196 -0.106756,-0.213515 -0.390461,-0.71507 -0.506394,-0.506394 -0.20184,0.363314 -0.296976,0.780385 -0.506391,1.139385 -0.843267,1.445598 -2.805994,4.62077 -4.430948,5.06394 -0.128744,0.03511 -0.07403,-0.257138 -0.126598,-0.379797 -0.200858,-0.468669 -0.393041,-0.942673 -0.632992,-1.392581 -0.155101,-0.290814 -0.485597,-0.464799 -0.632991,-0.759592 -0.03775,-0.07549 0.03774,-0.177708 0,-0.253196 -0.03094,-0.06188 -2.819387,0.187695 -3.038364,0 -1.045549,-0.896186 -1.474483,-1.484924 -2.911766,-1.77238 -0.983877,-0.196776 -1.277549,1.271767 -2.025576,1.64578 -0.01013,0.0051 -1.625264,-2.258256 -1.898976,-2.531969 -0.315949,-0.315949 -2.257276,0.654488 -2.405372,0.506395 -0.233053,-0.233055 -0.386654,-0.540625 -0.632991,-0.759591 -0.221512,-0.1969 -0.761096,-0.380549 -1.012788,-0.506394 -0.205256,-0.102628 -1.907972,-2.332967 -2.152174,-2.658568 -0.194961,-0.259949 0.464513,-0.674873 0.253198,-0.886189 -0.275569,-0.275568 -1.316257,-0.22898 -1.139386,-0.759591 0.341321,-1.023962 0.06233,-0.31553 0.75959,-1.012788 0.307483,-0.307482 -0.03765,-0.1859 0.253196,-0.379795 0.417525,-0.278349 1.009973,-0.247565 1.265986,-0.759591 0.02669,-0.05338 -0.09991,-0.07322 -0.126598,-0.126599 -0.09436,-0.188721 -0.06673,-0.432822 0,-0.632992 0.150937,-0.452814 0.97491,-1.607903 1.265984,-1.898977 0.124404,-0.124404 0.247835,0.62495 0.253195,0.632993 0.157028,0.235539 0.500907,-0.264825 0.759593,-0.379796 0.137281,-0.06101 1.095676,-0.08289 1.139386,-0.126598 0.540721,-0.54072 0.39824,-1.337252 0.759589,-0.253197 0.01333,0.04003 -0.0069,-0.08497 0,-0.126599 0.03538,-0.212248 0.06998,-0.425398 0.126601,-0.632992 0.190201,-0.697409 0.378031,-1.264222 0.886187,-1.772379 0.355563,-0.35556 0.258056,0.466059 0.506394,0.253197 0.271873,-0.233031 0.551466,-0.468213 0.759592,-0.75959 0.219385,-0.307139 0.297024,-0.698736 0.506394,-1.012788 0.21581,-0.323718 0.506394,-0.590793 0.75959,-0.886189 0.253198,-0.379796 0.52157,-0.7499 0.759592,-1.139386 0.286909,-0.4694881 0.394063,-1.1465203 0.886188,-1.3925836 0.03775,-0.018873 -0.01024,0.085659 0,0.1265986 0.03237,0.129462 0.06692,0.2604371 0.1266,0.3797954 0.236466,0.4729355 0.461722,0.9557086 0.75959,1.3925826 0.181726,0.266533 2.070933,2.800286 2.405369,2.911765 0.233794,0.07793 -0.166605,-4.3354012 0,-4.5575446 0.0747,-0.099594 0.757717,-0.8855641 0.759592,-0.8861893 0.434518,-0.1448393 1.984521,1.9076889 2.53197,2.4053709 0.463804,0.42164 0.86378,0.588555 0.886188,0.506394 0.12414,-0.45518 0.117626,-0.940677 0.253198,-1.3925833 0.119425,-0.3980886 0.357196,-0.7514722 0.506394,-1.1393863 0.01905,-0.049499 0.119531,-0.6482024 0.253196,-0.7595907 0.422688,-0.3522384 0.928388,-0.5907929 1.392584,-0.8861893 0.25673,-0.1633736 0.470903,-0.4101642 0.759589,-0.5063937 1.138447,-0.3794821 1.462707,1.9340375 2.152174,2.2787723 0.551376,0.2756869 0.956784,-0.4010911 1.265986,-0.6329923 0.506394,-0.3797953 0.379797,-0.1265983 0.75959,-0.3797953 0.207124,-0.1380826 0.241012,-0.2913343 0.506394,-0.3797954 0.866188,-0.2887292 0.837753,1.5629406 1.519182,1.392583 0.710159,-0.1775385 2.484499,-1.7961128 3.291559,-1.392583 0.57855,0.2892748 0.50562,0.5281441 1.13939,1.0127877 0.43706,0.3342275 0.93798,0.5762334 1.39258,0.8861891 0.47423,0.3233414 0.89585,0.7252054 1.39258,1.0127882 0.35969,0.208239 0.76765,0.320524 1.13939,0.506393 0.33676,0.168383 1.7959,-1.1393856 2.02558,-1.1393856 0.31894,0 0.90758,2.0255756 1.39258,2.0255756 0.57302,0 1.01969,-0.593094 1.51918,-0.759591 2.8204,-0.9401336 -0.58657,0.483182 1.13939,-0.379796 0.38598,-0.192993 2.82986,0.107234 3.54475,0 0.77058,-0.115586 1.6919,-0.5898122 2.53197,-0.379795 0.53823,0.134558 0.41201,0.554711 0.63299,0.886189 0.002,0.003 0.48875,0.629463 0.5064,0.632993 0.16391,0.03278 0.95693,-0.12164 1.13938,0 0.41812,0.278746 0.80271,2.363627 1.39259,2.658567 0.13604,0.06802 0.35992,-0.04882 0.50639,0 0.34205,0.114017 0.67519,0.253197 1.01279,0.379796 2.29953,0.862326 2.05552,0.866859 4.68414,1.392583 0.52432,0.104864 1.77736,0.0062 2.27878,0.632992 0.20969,0.262119 0.19127,1.70219 0.12659,2.025576 -0.15643,0.78219 -0.12659,-0.375555 -0.12659,0.253196 0,1.097187 0,2.194374 0,3.291561 0,0.295396 -0.0486,0.594812 0,0.886189 0.0286,0.171626 0.12659,0.332401 0.12659,0.506394 0,0.466108 -0.12659,0.926474 -0.12659,1.392583 0,0.0844 0,-0.168798 0,-0.253197 0,-0.442938 0.0397,-0.61834 0.12659,-1.139386 z"
       id="path7" />
    <ellipse
       style="fill:#d38d5f;stroke-width:0.264583"
       id="path8"
       cx="68.046677"
       cy="42.473785"
       rx="6.1400256"
       ry="8.4187975" />
    <ellipse
       style="fill:#d38d5f;stroke-width:0.264583"
       id="ellipse8"
       cx="137.80243"
       cy="43.106777"
       rx="6.1400256"
       ry="8.4187975" />
    <ellipse
       style="fill:#ffffff;stroke-width:0.264583"
       id="path9"
       cx="86.846542"
       cy="37.726345"
       rx="3.0383632"
       ry="4.0511508" />
    <ellipse
       style="fill:#ffffff;stroke-width:0.264583"
       id="ellipse9"
       cx="119.88874"
       cy="37.093353"
       rx="3.0383632"
       ry="4.0511508" />
    <ellipse
       style="fill:#803300;stroke-width:0.122637"
       id="ellipse10"
       cx="119.88874"
       cy="37.093353"
       rx="1.3925831"
       ry="1.8989769" />
    <ellipse
       style="fill:#803300;stroke-width:0.122637"
       id="ellipse11"
       cx="86.846542"
       cy="37.599747"
       rx="1.3925831"
       ry="1.8989769" />
    <path
       style="fill:#a05a2c;stroke-width:0.264583"
       d="m 87.479538,60.767264 c 0.900481,0.184644 0.807953,1.158586 1.392584,1.645779 0.102516,0.08543 0.265367,0.05794 0.379794,0.126598 0.153524,0.09211 0.21966,0.299728 0.379796,0.379796 0.03775,0.01886 0.09365,-0.02635 0.126598,0 0.186407,0.149125 0.317182,0.360844 0.506394,0.506394 0.649525,0.499634 1.456401,0.918099 2.152174,1.265984 0.136091,0.06804 0.235452,0.205081 0.379796,0.253198 0.369096,0.123031 0.761941,0.158835 1.139385,0.253196 1.279102,0.319775 -0.09143,-0.04572 0.506394,0.253198 0.02841,0.01421 2.275192,0.493374 2.405372,0.506391 0.347843,0.03478 0.930141,-0.125939 1.265984,0 1.110237,0.416341 2.226211,0.863796 3.418161,1.012788 0.41873,0.05234 0.84399,0 1.26598,0 1.50901,0 3.05561,-0.115533 4.55755,0 0.17348,0.01333 0.33578,0.09248 0.50639,0.126601 0.48518,0.09703 1.37117,0 1.77238,0 1.18158,0 2.36317,0 3.54476,0 0.0844,0 0.16879,0 0.25319,0 0.0422,-0.0422 0.0674,-0.119198 0.1266,-0.126601 0.41874,-0.05234 0.85659,0.102349 1.26599,0 0.11579,-0.02895 0.14885,-0.19523 0.25319,-0.253195 0.32995,-0.183304 0.66234,-0.366215 1.01279,-0.506394 0.0784,-0.03135 0.17771,0.03774 0.2532,0 0.18872,-0.09436 0.31767,-0.285435 0.50639,-0.379796 0.0755,-0.03774 0.17313,0.02669 0.2532,0 0.4484,-0.149466 0.53878,-0.93626 0.63299,-1.265984 0.0695,-0.243319 0.39959,-0.866397 0.2532,-1.012788 -0.0484,-0.04843 -0.58859,0 -0.63299,0 -1.13514,0 -1.38195,0.12128 -2.40537,0.632992 -0.11324,0.05662 -0.25698,-0.03071 -0.3798,0 -0.14761,0.0369 -0.22857,0.236394 -0.37979,0.253198 -0.53178,0.05908 -1.21323,0 -1.77238,0 -2.65857,0 -5.31714,0 -7.97571,0 -0.74488,0 -2.29047,0.177509 -2.91176,0 -0.25663,-0.07332 -0.49633,-0.20932 -0.75959,-0.253198 -0.71407,-0.11901 -1.560357,0.06531 -2.278775,0 -0.168799,-0.0422 -0.337595,-0.0844 -0.506394,-0.126598 -0.0422,-0.0422 -0.06998,-0.107728 -0.126598,-0.126598 -0.621495,-0.207166 -1.285576,-0.27637 -1.898978,-0.506394 -0.701307,-0.26299 -1.128323,-0.586491 -1.898975,-0.88619 -0.552151,-0.214725 -1.75755,-0.361609 -2.278774,-0.506394 -0.347398,-0.0965 -0.668179,-0.273762 -1.012788,-0.379796 -0.205661,-0.06328 -0.433205,-0.04668 -0.632992,-0.126598 -0.03918,-0.01566 0.03511,-0.10319 0,-0.126598 -0.267406,-0.178271 -0.587793,-0.260437 -0.88619,-0.379796 -0.07836,-0.03135 -0.169778,0.01283 -0.253196,0 -0.50741,-0.07806 -1.012788,-0.168796 -1.519182,-0.253195 z"
       id="path11" />
  </g>
</svg>
